# File created by Blade
# Date/Time:  Tue Jan 27 19:18:50 2015
#---------------------------------------------------------
:version 1.10
:name HOM
:units
  mass 1.0
  length 1.000000
  angle deg
:documentation
     Acclaim Skeleton File
:root
   axis xyz
   order TX TY TZ RX RY RZ
   position 0.000000 0.000000 0.000000
   orientation 0 0 0
:bonedata
   begin
      id 1
      name Spine_dum
      direction 0.000000 1.000000 0.000000
      length 6.116652
      axis 0.0 0.0 0.0 xyz
   end
   begin
      id 2
      name LeftUpLeg_dum
      direction 1.000000 0.000000 0.000000
      length 4.711765
      axis 0.0 0.0 0.0 xyz
   end
   begin
      id 3
      name RightUpLeg_dum
      direction -1.000000 0.000000 0.000000
      length 4.711765
      axis 0.0 0.0 0.0 xyz
   end
   begin
      id 4
      name Spine
      direction 0.000000 1.000000 0.000000
      length 0.000000
      axis 0.0 0.0 0.0 xyz
      dof rx ry rz
   end
   begin
      id 5
      name Spine_dum1
      direction 0.000000 1.000000 0.000000
      length 15.225563
      axis 0.0 0.0 0.0 xyz
   end
   begin
      id 6
      name Spine_dum2
      direction 0.000000 1.000000 0.000000
      length 8.977654
      axis 0.0 0.0 0.0 xyz
   end
   begin
      id 7
      name Spine_dum3
      direction 0.000000 1.000000 0.000000
      length 8.977654
      axis 0.0 0.0 0.0 xyz
   end
   begin
      id 8
      name Head
      direction 0.000000 1.000000 0.000000
      length 4.527550
      axis 0.0 0.0 0.0 xyz
      dof rx ry rz
   end
   begin
      id 9
      name LeftShoulder
      direction 1.000000 0.000000 0.000000
      length 7.110130
      axis 0.0 0.0 -90.0 xyz
      dof rx ry rz
   end
   begin
      id 10
      name LeftArm
      direction 1.000000 0.000000 0.000000
      length 10.398341
      axis 0.0 0.0 -90.0 xyz
      dof rx ry rz
   end
   begin
      id 11
      name LeftForeArm
      direction 1.000000 0.000000 0.000000
      length 8.888997
      axis 0.0 0.0 -90.0 xyz
      dof ry rz rx
   end
   begin
      id 12
      name LeftHand
      direction 0.000000 0.000000 0.000000
      length 0.000000
      axis 0.0 0.0 -90.0 xyz
      dof rx ry rz
   end
   begin
      id 13
      name LeftHand_dum1
      direction 0.000000 0.000000 0.000000
      length 0.000000
      axis 0.0 0.0 -90.0 xyz
   end
   begin
      id 14
      name LeftHand_dum2
      direction 1.000000 0.000000 0.000000
      length 3.937000
      axis 0.0 0.0 -90.0 xyz
   end
   begin
      id 15
      name LeftHandThumb1
      direction 0.000000 0.000000 1.000000
      length 3.937000
      axis 0.0 0.0 -90.0 xyz
      dof rx rz ry
   end
   begin
      id 16
      name RightShoulder
      direction -1.000000 0.000000 0.000000
      length 7.110130
      axis 0.0 0.0 90.0 xyz
      dof rx ry rz
   end
   begin
      id 17
      name RightArm
      direction -1.000000 0.000000 0.000000
      length 10.398341
      axis 0.0 0.0 90.0 xyz
      dof rx ry rz
   end
   begin
      id 18
      name RightForeArm
      direction -1.000000 0.000000 0.000000
      length 8.888997
      axis 0.0 0.0 90.0 xyz
      dof ry rz rx
   end
   begin
      id 19
      name RightHand
      direction 0.000000 0.000000 0.000000
      length 0.000000
      axis 0.0 0.0 90.0 xyz
      dof rx ry rz
   end
   begin
      id 20
      name RightHand_dum1
      direction 0.000000 0.000000 0.000000
      length 0.000000
      axis 0.0 0.0 90.0 xyz
   end
   begin
      id 21
      name RightHand_dum2
      direction -1.000000 0.000000 0.000000
      length 3.937000
      axis 0.0 0.0 90.0 xyz
   end
   begin
      id 22
      name RightHandThumb1
      direction 0.000000 0.000000 1.000000
      length 3.937000
      axis 0.0 0.0 90.0 xyz
      dof rx rz ry
   end
   begin
      id 23
      name LeftUpLeg
      direction 0.000000 -1.000000 0.000000
      length 15.510451
      axis 0.0 0.0 0.0 xyz
      dof rx ry rz
   end
   begin
      id 24
      name LeftLeg
      direction 0.000000 -1.000000 0.000000
      length 14.858061
      axis 0.0 0.0 0.0 xyz
      dof rx ry rz
   end
   begin
      id 25
      name LeftFoot
      direction 0.000000 -0.258819 0.965926
      length 5.128852
      axis 15.0 0.0 0.0 xyz
      dof rx ry rz
   end
   begin
      id 26
      name LeftToeBase
      direction 0.000000 0.000000 1.000000
      length 2.952750
      axis 0.0 0.0 0.0 xyz
      dof rx ry rz
   end
   begin
      id 27
      name RightUpLeg
      direction 0.000000 -1.000000 0.000000
      length 15.510451
      axis 0.0 0.0 0.0 xyz
      dof rx ry rz
   end
   begin
      id 28
      name RightLeg
      direction 0.000000 -1.000000 0.000000
      length 14.858061
      axis 0.0 0.0 0.0 xyz
      dof rx ry rz
   end
   begin
      id 29
      name RightFoot
      direction 0.000000 -0.258819 0.965926
      length 5.128852
      axis 15.0 0.0 0.0 xyz
      dof rx ry rz
   end
   begin
      id 30
      name RightToeBase
      direction 0.000000 0.000000 1.000000
      length 2.952750
      axis 0.0 0.0 0.0 xyz
      dof rx ry rz
   end
:hierarchy
   begin
      root Spine_dum LeftUpLeg_dum RightUpLeg_dum
      Spine_dum Spine
      LeftUpLeg_dum LeftUpLeg
      RightUpLeg_dum RightUpLeg
      Spine Spine_dum1 Spine_dum2 Spine_dum3
      Spine_dum1 Head
      Spine_dum2 LeftShoulder
      Spine_dum3 RightShoulder
      LeftShoulder LeftArm
      LeftArm LeftForeArm
      LeftForeArm LeftHand
      LeftHand LeftHand_dum1 LeftHand_dum2
      LeftHand_dum1 LeftHandThumb1
      RightShoulder RightArm
      RightArm RightForeArm
      RightForeArm RightHand
      RightHand RightHand_dum1 RightHand_dum2
      RightHand_dum1 RightHandThumb1
      LeftUpLeg LeftLeg
      LeftLeg LeftFoot
      LeftFoot LeftToeBase
      RightUpLeg RightLeg
      RightLeg RightFoot
      RightFoot RightToeBase
   end

# File created by Blade
# Date/Time:  Tue Jan 27 19:18:41 2015
# Frame Rate: 120.000 fps
#------------------------------------------------------
:FULLY-SPECIFIED
:DEGREES
260
root 4.784939 32.330956 1.053488 -1.539990 25.915269 3.775364
Spine -1.795982 28.337608 -1.829936
Head 1.859151 -37.189306 -3.708725
LeftShoulder -6.671389 -8.928633 21.377384
LeftArm -2.413843 42.804508 -100.116387
LeftForeArm 7.510273 -0.000000 13.473784
LeftHand 10.678596 -0.000000 -6.279610
LeftHandThumb1 -26.253704 0.000000 33.147579
RightShoulder -5.485065 31.267213 -55.844448
RightArm 74.840681 20.977311 111.127805
RightForeArm 21.832469 -0.000000 92.570990
RightHand 23.509255 -0.000000 -3.448290
RightHandThumb1 -24.326973 -0.000000 -32.862282
LeftUpLeg 5.954930 -17.040053 -4.575302
LeftLeg 2.942226 -0.000000 -0.000000
LeftFoot -11.728908 6.692929 -20.521508
LeftToeBase 17.357712 -0.000000 -0.000000
RightUpLeg 14.270834 -26.639221 -4.707991
RightLeg -1.947480 -0.000000 0.000000
RightFoot -16.444228 -18.316015 17.945367
RightToeBase 10.549821 -0.000000 -0.000000
261
root 4.787494 32.329558 1.053232 -1.526435 25.926069 3.778794
Spine -1.805248 28.363692 -1.853754
Head 1.877693 -37.240725 -3.669157
LeftShoulder -6.667888 -8.921703 21.402294
LeftArm -2.384802 42.749680 -100.063273
LeftForeArm 7.476088 -0.000000 13.176722
LeftHand 10.738416 -0.000000 -6.227963
LeftHandThumb1 -26.253704 0.000000 33.147579
RightShoulder -5.458377 31.285733 -55.835362
RightArm 74.746887 20.936016 111.092509
RightForeArm 21.939908 0.000000 92.646005
RightHand 23.531195 -0.000000 -3.313974
RightHandThumb1 -24.326973 -0.000000 -32.862282
LeftUpLeg 5.935836 -17.075156 -4.581045
LeftLeg 2.957060 -0.000000 -0.000000
LeftFoot -11.753024 6.703834 -20.537113
LeftToeBase 17.383958 -0.000000 -0.000000
RightUpLeg 14.263332 -26.690353 -4.719811
RightLeg -1.941846 -0.000000 0.000000
RightFoot -16.456260 -18.290798 17.926433
RightToeBase 10.523328 -0.000000 -0.000000
262
root 4.791279 32.328181 1.056237 -1.531249 25.944484 3.757495
Spine -1.819649 28.384576 -1.852372
Head 1.894102 -37.294763 -3.622529
LeftShoulder -6.671546 -8.926255 21.431131
LeftArm -2.399981 42.649494 -100.038104
LeftForeArm 7.534686 -0.000000 12.928329
LeftHand 10.763248 -0.000000 -6.211466
LeftHandThumb1 -26.253704 0.000000 33.147579
RightShoulder -5.420165 31.249229 -55.811459
RightArm 74.687190 20.893324 111.049204
RightForeArm 22.001428 -0.000000 92.725753
RightHand 23.573408 -0.000000 -3.234235
RightHandThumb1 -24.326973 -0.000000 -32.862282
LeftUpLeg 5.914442 -17.001080 -4.549229
LeftLeg 2.996252 -0.000000 -0.000000
LeftFoot -11.761106 6.574653 -20.540328
LeftToeBase 17.403567 -0.000000 -0.000000
RightUpLeg 14.278496 -26.761182 -4.719938
RightLeg -1.946467 -0.000000 0.000000
RightFoot -16.433989 -18.258897 17.914479
RightToeBase 10.442364 -0.000000 -0.000000
263
root 4.795680 32.327820 1.059062 -1.528939 25.956318 3.758966
Spine -1.821559 28.426461 -1.881706
Head 1.891827 -37.252306 -3.568170
LeftShoulder -6.697383 -8.934401 21.454824
LeftArm -2.384661 42.579187 -99.981592
LeftForeArm 7.657601 -0.000000 12.677832
LeftHand 10.744472 -0.000000 -6.319834
LeftHandThumb1 -26.253704 0.000000 33.147579
RightShoulder -5.418754 31.211747 -55.760466
RightArm 74.650805 20.817526 111.021836
RightForeArm 21.920700 0.000000 92.775761
RightHand 23.590026 -0.000000 -3.141494
RightHandThumb1 -24.326973 -0.000000 -32.862282
LeftUpLeg 5.909202 -16.999132 -4.555802
LeftLeg 3.018804 -0.000000 -0.000000
LeftFoot -11.776786 6.556650 -20.542979
LeftToeBase 17.419611 -0.000000 -0.000000
RightUpLeg 14.297564 -26.817871 -4.739506
RightLeg -1.958908 -0.000000 0.000000
RightFoot -16.414347 -18.240921 17.892363
RightToeBase 10.458941 -0.000000 -0.000000
264
root 4.801067 32.328409 1.059898 -1.517884 25.977496 3.765887
Spine -1.844715 28.413651 -1.883182
Head 1.977408 -37.236683 -3.625424
LeftShoulder -6.731795 -8.891575 21.424161
LeftArm -2.350057 42.558396 -99.908723
LeftForeArm 7.799073 0.000000 12.411627
LeftHand 10.580378 -0.000000 -5.921652
LeftHandThumb1 -26.253704 0.000000 33.147579
RightShoulder -5.316019 31.189864 -55.662050
RightArm 74.649096 20.696879 110.957837
RightForeArm 21.744839 -0.000000 92.808762
RightHand 23.553679 0.000000 -3.233484
RightHandThumb1 -24.326973 -0.000000 -32.862282
LeftUpLeg 5.906069 -17.044470 -4.573212
LeftLeg 3.016533 -0.000000 -0.000000
LeftFoot -11.769361 6.588183 -20.535212
LeftToeBase 17.397346 -0.000000 -0.000000
RightUpLeg 14.298115 -26.875504 -4.765619
RightLeg -1.946159 -0.000000 0.000000
RightFoot -16.419858 -18.200265 17.908831
RightToeBase 10.493054 -0.000000 -0.000000
